<?xml version="1.0" encoding="utf-8"?>
<!-- Generator: Adobe Illustrator 28.0.0, SVG Export Plug-In . SVG Version: 6.00 Build 0)  -->
<svg version="1.1" id="Layer_1" xmlns="http://www.w3.org/2000/svg" xmlns:xlink="http://www.w3.org/1999/xlink" x="0px" y="0px"
	 viewBox="0 0 1680 225.3" style="enable-background:new 0 0 1680 225.3;" xml:space="preserve">
<style type="text/css">
	.st0{fill:#EFF6FF;}
</style>
<path class="st0" d="M1680,101c-5.7-2.2-11.3-4.6-16.9-7.1c-23.1-10-46.2-21.8-69.4-33.5c-69.3-35.3-138.5-70.6-207.8-57.7
	c-53.3,9.9-106.6,48.2-159.9,86.6c-39.1,28.1-78.2,56.3-117.3,73.2c-90.9,39.7-181.7,17.6-272.6-4.6c-1.5-0.4-3-0.7-4.6-1.1
	c-4-1-7.9-1.9-11.9-2.9c-88.4-21.5-176.9-43.1-265.3-42.8c-37.3-0.1-74.5,3.6-111.8,7.4c-55.1,5.6-110.3,11.1-165.4,4.1
	c-92.4-11.8-184.8-56.7-231-79.9L0,19.8v205.4h1680V101z"/>
</svg>
