<svg xmlns="http://www.w3.org/2000/svg" xml:space="preserve" style="enable-background:new 0 0 1016 862" viewBox="0 0 1016 862"><path d="M65 0h951v853c-19.4-7.9-38.6-16.2-58.1-23.6-96.9-36.1-204.8-67-307.1-35.8-15.2 4.6-29.9 10.5-44.2 17.4-24.8 11.8-47.5 28.4-72.9 38.9-13.7 5.7-28.3 9.7-43.1 10.3-52.6 2.8-87.3-36.7-100.7-84.2-5.4-18.1-7.7-37.2-11-55.9-3.4-20.1-8.7-39.7-16.6-58.6-30.8-73.9-84.9-121.4-162-142.8-69-20.9-154.8-37.4-188.6-109C2.6 390 0 368.1.7 346.6c.3-7.8 1-15.6 2-23.4 7.3-50.4 22.1-99.3 40.6-146.6 19.9-50.5 33.7-81.8 28.9-138C70.1 25.7 67.4 12.9 65 0z"/></svg>
