<?xml version="1.0" encoding="utf-8"?>
<!-- Generator: Adobe Illustrator 28.0.0, SVG Export Plug-In . SVG Version: 6.00 Build 0)  -->
<svg version="1.1" id="Layer_1" xmlns="http://www.w3.org/2000/svg" xmlns:xlink="http://www.w3.org/1999/xlink" x="0px" y="0px"
	 viewBox="0 0 1000 1000" style="enable-background:new 0 0 1000 1000;" xml:space="preserve">
<path d="M640.6,907.7c-15,5.3-29.4,12.2-43.5,20.2c-24.4,13.7-46.8,33-71.8,45.2c-13.5,6.6-27.9,11.3-42.4,12
	c-51.8,3.3-85.9-42.7-99.1-97.9c-5.3-21-7.6-43.2-10.8-65c-3.3-23.4-8.6-46.1-16.3-68.1c-30.3-85.9-83.6-141.1-159.4-166
	c-67.9-24.3-152.4-43.5-185.6-126.7c-9-22.9-11.5-48.4-10.8-73.3c0.3-9.1,1-18.1,2-27.2c7.2-58.6,21.8-115.4,40-170.4
	C62.5,131.8,71.6,56.5,71.6,34.1C71.6,11.7,66.5,0,66.5,0H0v1000h1000v-23.2c-19.1-9.2-38-18.8-57.2-27.4
	C847.4,907.4,741.2,871.5,640.6,907.7z"/>
</svg>
