<svg width="512" height="512" viewBox="0 0 512 512" fill="none" xmlns="http://www.w3.org/2000/svg">
<path d="M474.158 393.715C511.12 340.059 536.532 214.084 474.158 92.7744C411.784 -28.5348 255.754 -10.853 173.744 33.4715C91.7333 77.796 -17.9987 110.748 2.5039 262.676C23.0065 414.604 130.704 512 246.802 512C354.513 512 437.196 447.371 474.158 393.715Z" fill="url(#paint0_linear_84_178)"/>
<path d="M413 145.5V158.625V215.5H386.833V158.625V145.5H413ZM386.833 233H413V338C413 376.664 381.764 408 343.222 408C304.681 408 273.444 376.664 273.444 338V333.625V320.5H299.611V333.625V338C299.611 362.172 319.127 381.75 343.222 381.75C367.317 381.75 386.833 362.172 386.833 338V233ZM242.917 285.5L235.721 271.117L228.361 256.352L225.472 250.5H216.75L213.861 256.352L206.501 271.117L199.306 285.5H125.167H99V259.25V189.25V163H125.167H317.056H343.222V189.25V259.25V285.5H317.056H242.917ZM193.364 238.742L200.559 224.25H216.75H225.472H241.663L248.913 238.742L259.107 259.25H317.056V189.25H125.167V259.25H183.115L193.309 238.742H193.364Z" fill="white"/>
<defs>
<linearGradient id="paint0_linear_84_178" x1="256" y1="0" x2="256" y2="512" gradientUnits="userSpaceOnUse">
<stop stop-color="#0082FF"/>
<stop offset="1" stop-color="#0059AF"/>
</linearGradient>
</defs>
</svg>
